<svg width="200" height="308" viewBox="0 0 130 200" fill="none" xmlns="http://www.w3.org/2000/svg">
  <ellipse cx="65" cy="145" rx="40" ry="48" fill="#5ba8c7" />
  <ellipse cx="65" cy="90"  rx="34" ry="32" fill="#5ba8c7" />
  <circle  cx="38" cy="65" r="13" fill="#5ba8c7" />
  <circle  cx="92" cy="65" r="13" fill="#5ba8c7" />
  <circle  cx="38" cy="65" r="7"  fill="#7dc1dd" />
  <circle  cx="92" cy="65" r="7"  fill="#7dc1dd" />
  <ellipse cx="65" cy="100" rx="18" ry="14" fill="#f0f8ff" opacity="0.7" />
  <circle  cx="55" cy="86" r="4" fill="#2a4a5a" />
  <circle  cx="75" cy="86" r="4" fill="#2a4a5a" />
  <ellipse cx="65" cy="104" rx="6" ry="4" fill="#2a4a5a" />
  <ellipse cx="28" cy="148" rx="13" ry="30" fill="#5ba8c7" transform="rotate(-15 28 148)" />
  <ellipse cx="102" cy="148" rx="13" ry="30" fill="#5ba8c7" transform="rotate(15 102 148)" />
  <ellipse cx="48" cy="187" rx="14" ry="12" fill="#4a95b5" />
  <ellipse cx="82" cy="187" rx="14" ry="12" fill="#4a95b5" />
  <rect x="24" y="158" width="20" height="24" rx="4" fill="#c97d1a" />
  <rect x="26" y="160" width="16" height="20" rx="3" fill="#f5a623" />
  <circle cx="34" cy="170" r="7" fill="#fff3c4" opacity="0.9" />
  <circle cx="34" cy="170" r="4" fill="#f5a623" opacity="0.6" />
</svg>